<svg id="picture1" style="display:inline" width="700" height="350" xunitlength="222.92993630573247" yunitlength="175" xmin="0" xmax="3.14" ymin="-1" ymax="1" ox="0" oy="175"><circle id="pointerpos" cx="0" cy="0" r="0.5" fill="red"></circle><rect x="0" y="0" width="700" height="350" style="stroke-width:1;fill:white"></rect><path d=" M0,0 0,350 M0,175 700,175" stroke-width="0.5" stroke="grey" fill="none"></path><path d="M0,175 700,175 M0,0 0,350" stroke-width="0.5" stroke="black" fill="none"></path><path id="undefined" d="M0,175 3.4999965,96.82600437002577 6.999993,37.846237410868866 10.4999895,10.125604607676678 13.999986,18.647223341415355 17.499982499999998,60.46185907525336 20.999978999999996,125.56609589900052 24.499975499999998,199.26732961447527 27.999972,265.4820476452047 31.499968499999998,310.2306689606031 34.999964999999996,324.57280526740357 38.4999615,306.37027537114795 41.99995799999999,260.53573112790235 45.499954499999994,197.7603478158968 48.999950999999996,132.04065738921298 52.49994749999999,77.57243677050468 55.999944,45.69785064604031 59.4999405,42.559406870545075 62.99993700000001,67.94238358355386 66.49993350000001,115.51742820137241 69.99993000000002,174.38797941491134 73.49992650000003,231.57006960072613 76.99992300000002,274.8434705229022 80.49991950000003,295.3507903345695 83.99991600000004,289.3944949497211 87.49991250000005,259.07097084723335 90.99990900000005,211.64149622888408 94.49990550000005,157.81416754954944 97.99990200000006,109.33917907213947 101.49989850000007,76.45478233670565 104.99989500000007,65.73668960753884 108.49989150000007,78.80001109880408 111.99988800000007,112.10596263796396 115.49988450000006,157.88067739040923 118.99988100000006,205.9145487597571 122.49987750000005,245.8287103539335 125.99987400000005,269.30778081816874 129.49987050000004,271.82072458752975 132.99986700000002,253.4763207827308 136.49986350000003,218.85639057345008 139.99986,175.89417539993224 143.49985650000002,134.0681049577646 146.999853,102.31977126833885 150.49984949999998,87.15147868192986 153.999846,91.30612262516348 157.49984249999997,113.29472055097261 160.99983899999998,147.84679369709647 164.49983549999996,187.15841143995 167.99983199999997,222.6453854892386 171.49982849999995,246.80972807901264 174.99982499999993,254.8152936061141 178.49982149999994,245.44342920736727 181.99981799999992,221.2426977477225 185.49981449999993,187.86545258820166 188.9998109999999,152.75878460591923 192.49980749999992,123.51074817639955 195.9998039999999,106.21745520809276 199.4998004999999,104.22084648705498 202.9997969999999,117.47658147096502 206.49979349999987,142.66823175593953 209.99978999999988,174.02020018982796 213.49978649999986,204.6132978209625 216.99978299999987,227.90509129928398 220.49977949999985,239.12239383267502 223.99977599999986,236.2309955547853 227.49977249999986,220.28757816151148 230.99976899999987,195.117383872301 234.4997654999999,166.4076597706155 237.99976199999992,140.42950214509597 241.49975849999993,122.67390558185542 244.99975499999996,116.69740010989455 248.49975149999997,123.41854698570899 251.99974799999998,141.00234222408625 255.4997445,165.339163724782 258.99974100000003,190.99709175002107 262.49973750000004,212.42858273106833 265.99973400000005,225.1646574328568 269.49973050000006,226.74069272996445 272.9997270000001,217.16342023016773 276.49972350000013,198.83308674922887 279.99972000000014,175.95432465478115 283.49971650000015,153.57797616236178 286.99971300000016,136.49092327726777 290.49970950000017,128.19688658369614 293.9997060000002,130.2041218405306 297.49970250000024,141.76340210595208 300.99969900000025,160.09860040071118 304.49969550000026,181.06515792945083 307.99969200000027,200.08189054308792 311.4996885000003,213.12769964626398 314.9996850000003,217.58726708794796 318.49968150000035,212.76889919279444 321.99967800000036,199.9935147913087 325.49967450000037,182.24893547830652 328.9996710000004,163.49711176105728 332.4996675000004,147.79369672826766 335.9996640000004,138.41472510273854 339.4996605000004,137.1776102065204 342.99965700000047,144.09617971632184 346.4996535000005,157.43346060344447 349.9996500000005,174.12858928643578 353.4996465000005,190.49465852565402 356.9996430000005,203.0293539095111 360.4996395000005,209.160914538158 363.9996360000006,207.77131906294568 367.4996325000006,199.39129731032415 370.9996290000006,186.03545865223032 374.4996255000006,170.72404662810607 377.9996220000006,156.80364790124906 381.4996185000006,147.21885976179908 384.9996150000007,143.89274689623858 388.4996115000007,147.34569090678048 391.9996080000007,156.62706588696108 395.4996045000007,169.56473373050898 398.9996010000007,183.26898800357816 402.49959750000073,194.77492438768962 405.99959400000074,201.68109306995137 409.4995905000008,202.64748041583977 412.9995870000008,197.65029150968377 416.4995835000008,187.94636992353344 419.99958000000083,175.76386667051628 423.49957650000084,163.79400919746212 426.99957300000085,154.59919539006648 430.4995695000009,150.0670340455527 433.9995660000009,151.02608536281383 437.49956250000093,157.10077275042818 440.99955900000094,166.82921149532388 444.49955550000095,178.01053858454293 447.99955200000096,188.20010537732202 451.49954850000097,195.24168410690623 454.9995450000009,197.72132185915137 458.4995415000009,195.24785791344414 461.9995380000008,188.50525800582432 465.49953450000083,179.0725871532025 468.9995310000008,169.05744125938924 472.49952750000074,160.62727680653626 475.99952400000075,155.54238085497803 479.4995205000007,154.79066464049265 482.99951700000065,158.39951379731696 486.4995135000006,165.459602724663 489.9995100000006,174.34900979784334 493.49950650000056,183.1033420882465 496.9995030000005,189.84791995037835 500.4994995000005,193.1973476039105 503.9994960000005,192.53772202660087 507.49949250000043,188.1345403733016 510.9994890000004,181.0485348533307 514.4994855000003,172.88343595504773 517.9994820000004,165.42499453217698 521.4994785000004,160.25209726184409 524.9994750000003,158.40430054060107 528.4994715000003,160.1753926919926 531.9994680000002,165.0733943707246 535.4994645000002,171.95043692233844 538.9994610000001,179.2693929145433 542.4994575000002,185.4458072885035 545.9994540000001,189.1894161538546 549.4994505000001,189.77196919892577 552.999447,187.16615377213088 556.4994435,182.02978926270077 559.9994399999999,175.54346700469642 563.4994364999999,169.14101174157446 566.999433,164.19392613250727 570.4994294999999,161.71896531240952 573.9994259999999,162.17088686473204 577.4994224999998,165.36222326320535 580.9994189999998,170.5233686913689 584.4994154999997,176.48574699128193 587.9994119999997,181.94494453277457 591.4994084999996,185.74486253359544 594.9994049999997,187.12125429434542 598.4994014999996,185.85363487655593 601.9993979999996,182.29579276471276 605.4993944999995,177.2821077670156 608.9993909999995,171.93362030128537 612.4993874999994,167.40857237855704 615.9993839999994,164.65267568382944 619.4993804999995,164.2027126629223 622.9993769999994,166.08397312110634 626.4993734999994,169.82063784058926 629.9993699999993,174.55338925394335 633.4993664999993,179.23569295231147 636.9993629999992,182.86419220303418 640.4993594999992,184.69271369247076 643.9993559999992,184.3844611858542 647.4993524999992,182.07164403761936 650.9993489999991,178.31260446330992 654.4993454999991,173.95881344888898 657.999341999999,169.96306679041123 661.499338499999,167.17186386449237 664.999334999999,166.14701775002396 668.499331499999,167.0538791401175 671.999327999999,169.63810425931587 675.4993244999989,173.29321577450804 678.9993209999989,177.20165017162947 682.4993174999988,180.51674838374265 685.9993139999988,182.54536519349443 689.4993104999987,182.89188664620303 692.9993069999988,181.53393941130275 696.4993034999987,178.81565489238398 699.9992999999987,175.36248229937274 " stroke-width="1" stroke="blue" fill="none"></path><path id="undefined" d="M0,175 3.4999965,175 6.999993,175 10.4999895,175 13.999986,175 17.499982499999998,175 20.999978999999996,175 24.499975499999998,175 27.999972,175 31.499968499999998,175 34.999964999999996,175 38.4999615,175 41.99995799999999,175 45.499954499999994,175 48.999950999999996,175 52.49994749999999,175 55.999944,175 59.4999405,175 62.99993700000001,175 66.49993350000001,175 69.99993000000002,175 73.49992650000003,175 76.99992300000002,175 80.49991950000003,175 83.99991600000004,175 87.49991250000005,175 90.99990900000005,175 94.49990550000005,175 97.99990200000006,175 101.49989850000007,175 104.99989500000007,175 108.49989150000007,175 111.99988800000007,175 115.49988450000006,175 118.99988100000006,175 122.49987750000005,175 125.99987400000005,175 129.49987050000004,175 132.99986700000002,175 136.49986350000003,175 139.99986,175 143.49985650000002,175 146.999853,175 150.49984949999998,175 153.999846,175 157.49984249999997,175 160.99983899999998,175 164.49983549999996,175 167.99983199999997,175 171.49982849999995,175 174.99982499999993,175 178.49982149999994,175 181.99981799999992,175 185.49981449999993,175 188.9998109999999,175 192.49980749999992,175 195.9998039999999,175 199.4998004999999,175 202.9997969999999,175 206.49979349999987,175 209.99978999999988,175 213.49978649999986,175 216.99978299999987,175 220.49977949999985,175 223.99977599999986,175 227.49977249999986,175 230.99976899999987,175 234.4997654999999,175 237.99976199999992,175 241.49975849999993,175 244.99975499999996,175 248.49975149999997,175 251.99974799999998,175 255.4997445,175 258.99974100000003,175 262.49973750000004,175 265.99973400000005,175 269.49973050000006,175 272.9997270000001,175 276.49972350000013,175 279.99972000000014,175 283.49971650000015,175 286.99971300000016,175 290.49970950000017,175 293.9997060000002,175 297.49970250000024,175 300.99969900000025,175 304.49969550000026,175 307.99969200000027,175 311.4996885000003,175 314.9996850000003,175 318.49968150000035,175 321.99967800000036,175 325.49967450000037,175 328.9996710000004,175 332.4996675000004,175 335.9996640000004,175 339.4996605000004,175 342.99965700000047,175 346.4996535000005,175 349.9996500000005,175 353.4996465000005,175 356.9996430000005,175 360.4996395000005,175 363.9996360000006,175 367.4996325000006,175 370.9996290000006,175 374.4996255000006,175 377.9996220000006,175 381.4996185000006,175 384.9996150000007,175 388.4996115000007,175 391.9996080000007,175 395.4996045000007,175 398.9996010000007,175 402.49959750000073,175 405.99959400000074,175 409.4995905000008,175 412.9995870000008,175 416.4995835000008,175 419.99958000000083,175 423.49957650000084,175 426.99957300000085,175 430.4995695000009,175 433.9995660000009,175 437.49956250000093,175 440.99955900000094,175 444.49955550000095,175 447.99955200000096,175 451.49954850000097,175 454.9995450000009,175 458.4995415000009,175 461.9995380000008,175 465.49953450000083,175 468.9995310000008,175 472.49952750000074,175 475.99952400000075,175 479.4995205000007,175 482.99951700000065,175 486.4995135000006,175 489.9995100000006,175 493.49950650000056,175 496.9995030000005,175 500.4994995000005,175 503.9994960000005,175 507.49949250000043,175 510.9994890000004,175 514.4994855000003,175 517.9994820000004,175 521.4994785000004,175 524.9994750000003,175 528.4994715000003,175 531.9994680000002,175 535.4994645000002,175 538.9994610000001,175 542.4994575000002,175 545.9994540000001,175 549.4994505000001,175 552.999447,175 556.4994435,175 559.9994399999999,175 563.4994364999999,175 566.999433,175 570.4994294999999,175 573.9994259999999,175 577.4994224999998,175 580.9994189999998,175 584.4994154999997,175 587.9994119999997,175 591.4994084999996,175 594.9994049999997,175 598.4994014999996,175 601.9993979999996,175 605.4993944999995,175 608.9993909999995,175 612.4993874999994,175 615.9993839999994,175 619.4993804999995,175 622.9993769999994,175 626.4993734999994,175 629.9993699999993,175 633.4993664999993,175 636.9993629999992,175 640.4993594999992,175 643.9993559999992,175 647.4993524999992,175 650.9993489999991,175 654.4993454999991,175 657.999341999999,175 661.499338499999,175 664.999334999999,175 668.499331499999,175 671.999327999999,175 675.4993244999989,175 678.9993209999989,175 682.4993174999988,175 685.9993139999988,175 689.4993104999987,175 692.9993069999988,175 696.4993034999987,175 699.9992999999987,175 " stroke-width="1" stroke="gray" fill="none"></path></svg>